<svg width="50mm" height="50mm" viewBox="0 0 50 50" xmlns="http://www.w3.org/2000/svg" version="1.1" preserveAspectRatio="xMidYMid meet"><g id="svgGroup" stroke-linecap="round" fill-rule="evenodd" font-size="9pt" stroke="#000" stroke-width="0.25mm" fill="none" style="stroke:#000;stroke-width:0.25mm;fill:none"><path d="M 3 3 L 3 14.125 L 0 14.125 L 0 35.875 L 3 35.875 L 3 47 L 14.125 47 L 14.125 50 L 35.875 50 L 35.875 47 L 47 47 L 47 35.875 L 50 35.875 L 50 14.125 L 47 14.125 L 47 3 L 35.875 3 L 35.875 0 L 14.125 0 L 14.125 3 L 3 3 Z" id="top_outsideCutPath" stroke="#FF0000" stroke-width="0.1" style="stroke:#FF0000;stroke-width:0.1" vector-effect="non-scaling-stroke"/><path d="M 28.594 26.406 L 28.535 26.406 A 7.671 7.671 0 0 1 28.585 26.973 A 6.428 6.428 0 0 1 28.594 27.295 L 28.594 29.497 L 27.783 29.497 L 27.783 21.743 L 28.442 21.743 L 28.555 22.476 L 28.594 22.476 A 2.182 2.182 0 0 1 28.909 22.117 A 1.687 1.687 0 0 1 29.321 21.841 A 2.03 2.03 0 0 1 29.903 21.671 A 2.627 2.627 0 0 1 30.273 21.646 A 2.485 2.485 0 0 1 30.975 21.739 A 1.836 1.836 0 0 1 31.916 22.373 Q 32.495 23.101 32.495 24.414 A 4.752 4.752 0 0 1 32.432 25.214 Q 32.359 25.64 32.202 25.982 A 2.278 2.278 0 0 1 31.907 26.462 A 1.919 1.919 0 0 1 30.543 27.18 A 2.749 2.749 0 0 1 30.273 27.192 Q 29.751 27.192 29.319 27 A 1.795 1.795 0 0 1 28.594 26.406 Z M 20.674 26.426 L 20.674 27.046 A 0.797 0.797 0 0 1 20.579 27.083 Q 20.478 27.117 20.334 27.143 A 3.033 3.033 0 0 1 20.286 27.151 Q 20.029 27.192 19.824 27.192 A 2.117 2.117 0 0 1 19.2 27.108 Q 18.271 26.822 18.271 25.557 L 18.271 22.373 L 17.505 22.373 L 17.505 21.982 L 18.271 21.646 L 18.613 20.503 L 19.082 20.503 L 19.082 21.743 L 20.635 21.743 L 20.635 22.373 L 19.082 22.373 L 19.082 25.522 A 1.632 1.632 0 0 0 19.106 25.809 Q 19.134 25.966 19.195 26.091 A 0.786 0.786 0 0 0 19.311 26.265 Q 19.541 26.523 19.941 26.523 A 2.662 2.662 0 0 0 20.331 26.496 A 2.453 2.453 0 0 0 20.356 26.492 Q 20.557 26.46 20.674 26.426 Z M 26.288 25.229 A 4.187 4.187 0 0 0 26.362 24.414 Q 26.362 23.894 26.252 23.461 A 2.524 2.524 0 0 0 25.701 22.393 A 2.122 2.122 0 0 0 24.716 21.757 A 2.724 2.724 0 0 0 23.916 21.646 A 3.148 3.148 0 0 0 23.351 21.694 A 2.144 2.144 0 0 0 22.1 22.375 A 2.239 2.239 0 0 0 21.825 22.757 Q 21.445 23.418 21.445 24.414 A 4.055 4.055 0 0 0 21.496 25.071 A 2.998 2.998 0 0 0 21.748 25.889 A 2.664 2.664 0 0 0 21.807 26.004 A 2.194 2.194 0 0 0 22.607 26.855 Q 23.164 27.192 23.882 27.192 A 3.147 3.147 0 0 0 24.431 27.146 A 2.161 2.161 0 0 0 25.703 26.458 A 2.261 2.261 0 0 0 25.972 26.088 Q 26.192 25.712 26.288 25.229 Z M 22.285 24.414 Q 22.285 25.439 22.695 25.977 A 1.328 1.328 0 0 0 23.56 26.486 A 2.013 2.013 0 0 0 23.901 26.514 A 1.883 1.883 0 0 0 24.398 26.452 A 1.31 1.31 0 0 0 25.11 25.979 A 1.74 1.74 0 0 0 25.381 25.451 Q 25.46 25.207 25.495 24.91 A 4.27 4.27 0 0 0 25.522 24.414 A 4.044 4.044 0 0 0 25.484 23.838 Q 25.442 23.544 25.353 23.307 A 1.669 1.669 0 0 0 25.11 22.864 A 1.333 1.333 0 0 0 24.281 22.369 A 2.044 2.044 0 0 0 23.892 22.334 A 1.929 1.929 0 0 0 23.411 22.39 A 1.291 1.291 0 0 0 22.69 22.856 Q 22.285 23.379 22.285 24.414 Z M 28.594 24.233 L 28.594 24.414 A 5.359 5.359 0 0 0 28.62 24.968 Q 28.679 25.527 28.865 25.867 A 1.222 1.222 0 0 0 28.97 26.028 A 1.176 1.176 0 0 0 29.566 26.43 Q 29.766 26.493 30.009 26.508 A 2.606 2.606 0 0 0 30.176 26.514 A 1.366 1.366 0 0 0 30.707 26.414 Q 31.035 26.277 31.262 25.952 A 1.96 1.96 0 0 0 31.531 25.38 Q 31.609 25.117 31.638 24.802 A 4.318 4.318 0 0 0 31.655 24.404 Q 31.655 23.747 31.486 23.291 A 1.718 1.718 0 0 0 31.262 22.869 A 1.261 1.261 0 0 0 30.34 22.343 A 1.744 1.744 0 0 0 30.156 22.334 Q 29.336 22.334 28.97 22.788 Q 28.627 23.213 28.596 24.109 A 5.158 5.158 0 0 0 28.594 24.233 Z" id="top_labelLayer" stroke="#777777" fill="#777777" style="stroke:#777777;fill:#777777" vector-effect="non-scaling-stroke"/></g></svg>