<svg width="50mm" height="1000mm" viewBox="0 0 50 1000" xmlns="http://www.w3.org/2000/svg" version="1.1" preserveAspectRatio="xMidYMid meet"><g id="svgGroup" stroke-linecap="round" fill-rule="evenodd" font-size="9pt" stroke="#000" stroke-width="0.25mm" fill="none" style="stroke:#000;stroke-width:0.25mm;fill:none"><path d="M 3 0 L 3 54.125 L 0 54.125 L 0 75.875 L 3 75.875 L 3 97.625 L 0 97.625 L 0 119.375 L 3 119.375 L 3 141.125 L 0 141.125 L 0 162.875 L 3 162.875 L 3 184.625 L 0 184.625 L 0 206.375 L 3 206.375 L 3 228.125 L 0 228.125 L 0 249.875 L 3 249.875 L 3 271.625 L 0 271.625 L 0 293.375 L 3 293.375 L 3 315.125 L 0 315.125 L 0 336.875 L 3 336.875 L 3 358.625 L 0 358.625 L 0 380.375 L 3 380.375 L 3 402.125 L 0 402.125 L 0 423.875 L 3 423.875 L 3 445.625 L 0 445.625 L 0 467.375 L 3 467.375 L 3 489.125 L 0 489.125 L 0 510.875 L 3 510.875 L 3 532.625 L 0 532.625 L 0 554.375 L 3 554.375 L 3 576.125 L 0 576.125 L 0 597.875 L 3 597.875 L 3 619.625 L 0 619.625 L 0 641.375 L 3 641.375 L 3 663.125 L 0 663.125 L 0 684.875 L 3 684.875 L 3 706.625 L 0 706.625 L 0 728.375 L 3 728.375 L 3 750.125 L 0 750.125 L 0 771.875 L 3 771.875 L 3 793.625 L 0 793.625 L 0 815.375 L 3 815.375 L 3 837.125 L 0 837.125 L 0 858.875 L 3 858.875 L 3 880.625 L 0 880.625 L 0 902.375 L 3 902.375 L 3 924.125 L 0 924.125 L 0 945.875 L 3 945.875 L 3 967.625 L 3 1000 L 14.125 1000 L 14.125 997 L 35.875 997 L 35.875 1000 L 47 1000 L 47 945.875 L 50 945.875 L 50 924.125 L 47 924.125 L 47 902.375 L 50 902.375 L 50 880.625 L 47 880.625 L 47 858.875 L 50 858.875 L 50 837.125 L 47 837.125 L 47 815.375 L 50 815.375 L 50 793.625 L 47 793.625 L 47 771.875 L 50 771.875 L 50 750.125 L 47 750.125 L 47 728.375 L 50 728.375 L 50 706.625 L 47 706.625 L 47 684.875 L 50 684.875 L 50 663.125 L 47 663.125 L 47 641.375 L 50 641.375 L 50 619.625 L 47 619.625 L 47 597.875 L 50 597.875 L 50 576.125 L 47 576.125 L 47 554.375 L 50 554.375 L 50 532.625 L 47 532.625 L 47 510.875 L 50 510.875 L 50 489.125 L 47 489.125 L 47 467.375 L 50 467.375 L 50 445.625 L 47 445.625 L 47 423.875 L 50 423.875 L 50 402.125 L 47 402.125 L 47 380.375 L 50 380.375 L 50 358.625 L 47 358.625 L 47 336.875 L 50 336.875 L 50 315.125 L 47 315.125 L 47 293.375 L 50 293.375 L 50 271.625 L 47 271.625 L 47 249.875 L 50 249.875 L 50 228.125 L 47 228.125 L 47 206.375 L 50 206.375 L 50 184.625 L 47 184.625 L 47 162.875 L 50 162.875 L 50 141.125 L 47 141.125 L 47 119.375 L 50 119.375 L 50 97.625 L 47 97.625 L 47 75.875 L 50 75.875 L 50 54.125 L 47 54.125 L 47 32.375 L 47 0 L 35.875 0 L 35.875 3 L 14.125 3 L 14.125 0 L 3 0 Z" id="right_outsideCutPath" stroke="#FF0000" stroke-width="0.1" style="stroke:#FF0000;stroke-width:0.1" vector-effect="non-scaling-stroke"/><path d="M 31.218 502.598 L 30.408 502.598 L 30.408 499.136 A 2.291 2.291 0 0 0 30.381 498.776 Q 30.319 498.386 30.11 498.159 A 0.914 0.914 0 0 0 29.735 497.92 Q 29.5 497.837 29.177 497.837 A 2.453 2.453 0 0 0 28.719 497.877 Q 28.464 497.925 28.269 498.033 A 1.135 1.135 0 0 0 27.944 498.296 A 1.349 1.349 0 0 0 27.715 498.701 Q 27.577 499.073 27.559 499.625 A 5.231 5.231 0 0 0 27.556 499.8 L 27.556 502.598 L 26.746 502.598 L 26.746 495 L 27.556 495 L 27.556 497.3 A 7.291 7.291 0 0 1 27.551 497.58 Q 27.546 497.711 27.536 497.824 A 3.171 3.171 0 0 1 27.517 497.988 L 27.566 497.988 A 1.619 1.619 0 0 1 28.133 497.442 A 1.978 1.978 0 0 1 28.247 497.38 A 2.081 2.081 0 0 1 28.93 497.178 A 2.631 2.631 0 0 1 29.255 497.158 A 3.288 3.288 0 0 1 29.808 497.201 Q 30.102 497.252 30.334 497.36 A 1.461 1.461 0 0 1 30.728 497.624 A 1.411 1.411 0 0 1 31.076 498.171 Q 31.218 498.559 31.218 499.106 L 31.218 502.598 Z M 23.796 497.246 L 25.647 497.246 L 25.647 497.759 L 24.656 497.876 Q 24.792 498.047 24.9 498.323 Q 25.007 498.599 25.007 498.945 A 1.858 1.858 0 0 1 24.922 499.521 A 1.503 1.503 0 0 1 24.47 500.2 Q 23.986 500.622 23.178 500.664 A 3.521 3.521 0 0 1 22.996 500.669 A 2.605 2.605 0 0 1 22.694 500.652 A 2.2 2.2 0 0 1 22.546 500.63 A 1.442 1.442 0 0 0 22.314 500.78 Q 22.194 500.877 22.124 500.988 A 0.61 0.61 0 0 0 22.029 501.318 Q 22.029 501.538 22.209 501.643 Q 22.39 501.748 22.83 501.748 L 23.777 501.748 A 3.318 3.318 0 0 1 24.281 501.784 Q 24.544 501.824 24.757 501.911 A 1.465 1.465 0 0 1 25.112 502.114 A 1.186 1.186 0 0 1 25.553 502.87 A 1.781 1.781 0 0 1 25.579 503.179 Q 25.579 504.067 24.866 504.534 Q 24.369 504.859 23.553 504.957 A 6.424 6.424 0 0 1 22.786 505 A 4.541 4.541 0 0 1 22.176 504.962 Q 21.558 504.878 21.167 504.609 A 1.292 1.292 0 0 1 20.751 504.157 Q 20.617 503.91 20.601 503.597 A 1.711 1.711 0 0 1 20.598 503.506 A 1.239 1.239 0 0 1 20.911 502.661 Q 21.223 502.305 21.79 502.178 A 0.841 0.841 0 0 1 21.463 501.914 A 0.999 0.999 0 0 1 21.445 501.89 A 0.751 0.751 0 0 1 21.307 501.483 A 0.931 0.931 0 0 1 21.306 501.436 A 0.927 0.927 0 0 1 21.353 501.137 A 0.821 0.821 0 0 1 21.462 500.923 A 1.16 1.16 0 0 1 21.616 500.75 Q 21.697 500.674 21.802 500.599 A 2.546 2.546 0 0 1 21.956 500.498 A 1.421 1.421 0 0 1 21.338 500.004 A 1.761 1.761 0 0 1 21.279 499.917 A 1.676 1.676 0 0 1 21.022 499.109 A 2.045 2.045 0 0 1 21.018 498.979 Q 21.018 498.101 21.545 497.624 A 1.721 1.721 0 0 1 22.206 497.26 Q 22.469 497.18 22.784 497.157 A 3.58 3.58 0 0 1 23.04 497.148 A 3.107 3.107 0 0 1 23.451 497.174 A 2.366 2.366 0 0 1 23.796 497.246 Z M 35.344 501.929 L 35.344 502.549 A 0.797 0.797 0 0 1 35.25 502.586 Q 35.149 502.62 35.004 502.646 A 3.033 3.033 0 0 1 34.956 502.654 Q 34.7 502.695 34.495 502.695 A 2.117 2.117 0 0 1 33.871 502.611 Q 32.942 502.325 32.942 501.06 L 32.942 497.876 L 32.175 497.876 L 32.175 497.485 L 32.942 497.148 L 33.284 496.006 L 33.752 496.006 L 33.752 497.246 L 35.305 497.246 L 35.305 497.876 L 33.752 497.876 L 33.752 501.025 A 1.632 1.632 0 0 0 33.776 501.312 Q 33.804 501.469 33.866 501.594 A 0.786 0.786 0 0 0 33.982 501.768 Q 34.211 502.026 34.612 502.026 A 2.662 2.662 0 0 0 35.002 501.998 A 2.453 2.453 0 0 0 35.027 501.995 Q 35.227 501.963 35.344 501.929 Z M 17.737 497.207 L 17.625 497.959 Q 17.348 497.898 17.126 497.888 A 1.901 1.901 0 0 0 17.039 497.886 Q 16.389 497.886 15.928 498.413 A 1.851 1.851 0 0 0 15.481 499.452 A 2.46 2.46 0 0 0 15.466 499.727 L 15.466 502.598 L 14.656 502.598 L 14.656 497.246 L 15.325 497.246 L 15.417 498.237 L 15.457 498.237 A 2.737 2.737 0 0 1 15.763 497.8 A 2.091 2.091 0 0 1 16.174 497.432 Q 16.594 497.148 17.097 497.148 A 3.721 3.721 0 0 1 17.43 497.163 A 2.716 2.716 0 0 1 17.737 497.207 Z M 19.548 497.246 L 19.548 502.598 L 18.738 502.598 L 18.738 497.246 L 19.548 497.246 Z M 23.518 502.476 L 22.546 502.476 A 1.863 1.863 0 0 0 22.211 502.504 Q 21.894 502.562 21.687 502.739 Q 21.379 503.003 21.379 503.496 A 0.814 0.814 0 0 0 21.433 503.798 Q 21.52 504.017 21.746 504.155 Q 22.112 504.38 22.795 504.38 A 5.449 5.449 0 0 0 23.328 504.356 Q 23.861 504.303 24.196 504.136 A 1.346 1.346 0 0 0 24.307 504.075 Q 24.797 503.77 24.797 503.247 A 1.097 1.097 0 0 0 24.777 503.029 Q 24.724 502.766 24.529 502.644 A 0.769 0.769 0 0 0 24.347 502.564 Q 24.057 502.476 23.518 502.476 Z M 21.819 498.96 A 1.582 1.582 0 0 0 21.851 499.292 Q 21.921 499.614 22.136 499.81 Q 22.454 500.098 23.02 500.098 Q 23.957 500.098 24.154 499.379 A 1.642 1.642 0 0 0 24.207 498.945 Q 24.207 497.988 23.45 497.791 A 1.763 1.763 0 0 0 23.005 497.739 Q 22.568 497.739 22.285 497.92 A 0.933 0.933 0 0 0 22.126 498.047 Q 21.865 498.308 21.826 498.783 A 2.132 2.132 0 0 0 21.819 498.96 Z M 18.806 495.388 A 0.379 0.379 0 0 0 18.722 495.507 Q 18.669 495.623 18.669 495.796 Q 18.669 495.934 18.704 496.036 A 0.418 0.418 0 0 0 18.806 496.204 Q 18.943 496.338 19.148 496.338 A 0.473 0.473 0 0 0 19.485 496.204 A 0.396 0.396 0 0 0 19.562 496.101 Q 19.597 496.035 19.613 495.95 A 0.839 0.839 0 0 0 19.626 495.796 A 0.927 0.927 0 0 0 19.622 495.708 Q 19.603 495.5 19.485 495.391 A 0.478 0.478 0 0 0 19.148 495.259 A 0.619 0.619 0 0 0 19.107 495.26 A 0.469 0.469 0 0 0 18.806 495.388 Z" id="right_labelLayer" stroke="#777777" fill="#777777" style="stroke:#777777;fill:#777777" vector-effect="non-scaling-stroke"/></g></svg>