<?xml version="1.0" encoding="UTF-8" standalone="no"?>
<svg xmlns="http://www.w3.org/2000/svg" xmlns:xlink="http://www.w3.org/1999/xlink" width="280.000mm" height="70.000mm" viewBox="10.000000 -190.000000 280.000000 70.000000">
    <path transform="matrix(1,0,0,-1,0,0)" style="stroke:#000000;stroke-width:0.050000mm;fill:none" d="M140,180L140,190L10,190L10,180L13,180L13,170L10,170L10,160L13,160L13,150L60,150L60,170L70,170L70,173L80,173L80,170L90,170L90,150L137,150L137,160L140,160L140,170L137,170L137,180L140,180z"/>
    <path transform="matrix(1,0,0,-1,0,0)" style="stroke:#000000;stroke-width:0.050000mm;fill:none" d="M280,170L290,170L290,190L150,190L150,180L147,180L147,170L150,170L150,160L160,160L160,180L280,180L280,170z"/>
    <path transform="matrix(1,0,0,-1,0,40)" style="stroke:#000000;stroke-width:0.050000mm;fill:none" d="M280,170L290,170L290,190L150,190L150,180L147,180L147,170L150,170L150,160L160,160L160,180L280,180L280,170z"/>
    <path transform="matrix(1,0,0,-1,0,0)" style="stroke:#000000;stroke-width:0.050000mm;fill:none" d="M60,120L70,130L80,130L84.941406,124.989258L90,120L90,140L80,140L80,143L70,143L70,140L60,140L60,120z"/>
</svg>
