<svg width="50mm" height="1000mm" viewBox="0 0 50 1000" xmlns="http://www.w3.org/2000/svg" version="1.1" preserveAspectRatio="xMidYMid meet"><g id="svgGroup" stroke-linecap="round" fill-rule="evenodd" font-size="9pt" stroke="#000" stroke-width="0.25mm" fill="none" style="stroke:#000;stroke-width:0.25mm;fill:none"><path d="M 0 0 L 0 54.125 L 3 54.125 L 3 75.875 L 0 75.875 L 0 97.625 L 3 97.625 L 3 119.375 L 0 119.375 L 0 141.125 L 3 141.125 L 3 162.875 L 0 162.875 L 0 184.625 L 3 184.625 L 3 206.375 L 0 206.375 L 0 228.125 L 3 228.125 L 3 249.875 L 0 249.875 L 0 271.625 L 3 271.625 L 3 293.375 L 0 293.375 L 0 315.125 L 3 315.125 L 3 336.875 L 0 336.875 L 0 358.625 L 3 358.625 L 3 380.375 L 0 380.375 L 0 402.125 L 3 402.125 L 3 423.875 L 0 423.875 L 0 445.625 L 3 445.625 L 3 467.375 L 0 467.375 L 0 489.125 L 3 489.125 L 3 510.875 L 0 510.875 L 0 532.625 L 3 532.625 L 3 554.375 L 0 554.375 L 0 576.125 L 3 576.125 L 3 597.875 L 0 597.875 L 0 619.625 L 3 619.625 L 3 641.375 L 0 641.375 L 0 663.125 L 3 663.125 L 3 684.875 L 0 684.875 L 0 706.625 L 3 706.625 L 3 728.375 L 0 728.375 L 0 750.125 L 3 750.125 L 3 771.875 L 0 771.875 L 0 793.625 L 3 793.625 L 3 815.375 L 0 815.375 L 0 837.125 L 3 837.125 L 3 858.875 L 0 858.875 L 0 880.625 L 3 880.625 L 3 902.375 L 0 902.375 L 0 924.125 L 3 924.125 L 3 945.875 L 0 945.875 L 0 967.625 L 0 1000 L 14.125 1000 L 14.125 997 L 35.875 997 L 35.875 1000 L 50 1000 L 50 945.875 L 47 945.875 L 47 924.125 L 50 924.125 L 50 902.375 L 47 902.375 L 47 880.625 L 50 880.625 L 50 858.875 L 47 858.875 L 47 837.125 L 50 837.125 L 50 815.375 L 47 815.375 L 47 793.625 L 50 793.625 L 50 771.875 L 47 771.875 L 47 750.125 L 50 750.125 L 50 728.375 L 47 728.375 L 47 706.625 L 50 706.625 L 50 684.875 L 47 684.875 L 47 663.125 L 50 663.125 L 50 641.375 L 47 641.375 L 47 619.625 L 50 619.625 L 50 597.875 L 47 597.875 L 47 576.125 L 50 576.125 L 50 554.375 L 47 554.375 L 47 532.625 L 50 532.625 L 50 510.875 L 47 510.875 L 47 489.125 L 50 489.125 L 50 467.375 L 47 467.375 L 47 445.625 L 50 445.625 L 50 423.875 L 47 423.875 L 47 402.125 L 50 402.125 L 50 380.375 L 47 380.375 L 47 358.625 L 50 358.625 L 50 336.875 L 47 336.875 L 47 315.125 L 50 315.125 L 50 293.375 L 47 293.375 L 47 271.625 L 50 271.625 L 50 249.875 L 47 249.875 L 47 228.125 L 50 228.125 L 50 206.375 L 47 206.375 L 47 184.625 L 50 184.625 L 50 162.875 L 47 162.875 L 47 141.125 L 50 141.125 L 50 119.375 L 47 119.375 L 47 97.625 L 50 97.625 L 50 75.875 L 47 75.875 L 47 54.125 L 50 54.125 L 50 32.375 L 50 0 L 35.875 0 L 35.875 3 L 14.125 3 L 14.125 0 L 0 0 Z" id="front_outsideCutPath" stroke="#FF0000" stroke-width="0.1" style="stroke:#FF0000;stroke-width:0.1" vector-effect="non-scaling-stroke"/><path d="M 32.288 503.777 L 31.477 503.777 L 31.477 500.315 A 2.291 2.291 0 0 0 31.451 499.956 Q 31.389 499.565 31.179 499.338 A 0.914 0.914 0 0 0 30.804 499.099 Q 30.569 499.016 30.247 499.016 A 2.453 2.453 0 0 0 29.788 499.056 Q 29.291 499.151 29.016 499.47 Q 28.659 499.885 28.628 500.793 A 5.193 5.193 0 0 0 28.625 500.969 L 28.625 503.777 L 27.815 503.777 L 27.815 498.425 L 28.474 498.425 L 28.606 499.158 L 28.645 499.158 A 1.641 1.641 0 0 1 29.288 498.573 A 1.974 1.974 0 0 1 29.343 498.545 A 2.195 2.195 0 0 1 30.124 498.336 A 2.654 2.654 0 0 1 30.344 498.328 A 3.2 3.2 0 0 1 30.889 498.371 Q 31.46 498.47 31.799 498.794 A 1.405 1.405 0 0 1 32.142 499.331 Q 32.224 499.553 32.26 499.827 A 3.537 3.537 0 0 1 32.288 500.286 L 32.288 503.777 Z M 16.716 498.425 L 16.716 499.055 L 15.354 499.055 L 15.354 503.777 L 14.543 503.777 L 14.543 499.055 L 13.586 499.055 L 13.586 498.689 L 14.543 498.396 L 14.543 498.098 A 3.285 3.285 0 0 1 14.62 497.354 Q 14.907 496.125 16.267 496.125 A 2.61 2.61 0 0 1 16.636 496.154 Q 16.816 496.179 17.016 496.229 A 5.247 5.247 0 0 1 17.263 496.296 L 17.053 496.946 Q 16.72 496.838 16.456 496.807 A 1.743 1.743 0 0 0 16.252 496.794 A 1.093 1.093 0 0 0 15.989 496.824 A 0.702 0.702 0 0 0 15.574 497.1 Q 15.354 497.405 15.354 498.079 L 15.354 498.425 L 16.716 498.425 Z M 36.414 503.108 L 36.414 503.728 A 0.797 0.797 0 0 1 36.319 503.765 Q 36.218 503.799 36.074 503.825 A 3.033 3.033 0 0 1 36.025 503.833 Q 35.769 503.874 35.564 503.874 A 2.117 2.117 0 0 1 34.94 503.79 Q 34.011 503.504 34.011 502.239 L 34.011 499.055 L 33.245 499.055 L 33.245 498.664 L 34.011 498.328 L 34.353 497.185 L 34.822 497.185 L 34.822 498.425 L 36.375 498.425 L 36.375 499.055 L 34.822 499.055 L 34.822 502.204 A 1.632 1.632 0 0 0 34.845 502.491 Q 34.873 502.648 34.935 502.773 A 0.786 0.786 0 0 0 35.051 502.947 Q 35.281 503.205 35.681 503.205 A 2.662 2.662 0 0 0 36.071 503.178 A 2.453 2.453 0 0 0 36.096 503.174 Q 36.296 503.142 36.414 503.108 Z M 20.774 498.386 L 20.662 499.138 Q 20.385 499.077 20.163 499.067 A 1.901 1.901 0 0 0 20.076 499.065 Q 19.426 499.065 18.965 499.592 A 1.851 1.851 0 0 0 18.518 500.631 A 2.46 2.46 0 0 0 18.503 500.906 L 18.503 503.777 L 17.693 503.777 L 17.693 498.425 L 18.362 498.425 L 18.455 499.416 L 18.494 499.416 A 2.737 2.737 0 0 1 18.8 498.979 A 2.091 2.091 0 0 1 19.211 498.611 Q 19.631 498.328 20.134 498.328 A 3.721 3.721 0 0 1 20.467 498.342 A 2.716 2.716 0 0 1 20.774 498.386 Z M 26.32 501.911 A 4.187 4.187 0 0 0 26.394 501.096 Q 26.394 500.576 26.284 500.144 A 2.524 2.524 0 0 0 25.732 499.075 A 2.122 2.122 0 0 0 24.747 498.439 A 2.724 2.724 0 0 0 23.948 498.328 A 3.148 3.148 0 0 0 23.382 498.376 A 2.144 2.144 0 0 0 22.131 499.058 A 2.239 2.239 0 0 0 21.856 499.439 Q 21.477 500.1 21.477 501.096 A 4.055 4.055 0 0 0 21.528 501.753 A 2.998 2.998 0 0 0 21.78 502.571 A 2.664 2.664 0 0 0 21.839 502.686 A 2.194 2.194 0 0 0 22.639 503.537 Q 23.196 503.874 23.914 503.874 A 3.147 3.147 0 0 0 24.463 503.828 A 2.161 2.161 0 0 0 25.735 503.14 A 2.261 2.261 0 0 0 26.004 502.77 Q 26.224 502.394 26.32 501.911 Z M 22.317 501.096 Q 22.317 502.121 22.727 502.659 A 1.328 1.328 0 0 0 23.592 503.168 A 2.013 2.013 0 0 0 23.933 503.196 A 1.883 1.883 0 0 0 24.43 503.134 A 1.31 1.31 0 0 0 25.142 502.661 A 1.74 1.74 0 0 0 25.413 502.133 Q 25.492 501.889 25.527 501.592 A 4.27 4.27 0 0 0 25.554 501.096 A 4.044 4.044 0 0 0 25.516 500.52 Q 25.474 500.226 25.384 499.989 A 1.669 1.669 0 0 0 25.142 499.546 A 1.333 1.333 0 0 0 24.313 499.051 A 2.044 2.044 0 0 0 23.923 499.016 A 1.929 1.929 0 0 0 23.443 499.072 A 1.291 1.291 0 0 0 22.722 499.538 Q 22.317 500.061 22.317 501.096 Z" id="front_labelLayer" stroke="#777777" fill="#777777" style="stroke:#777777;fill:#777777" vector-effect="non-scaling-stroke"/></g></svg>