<svg width="50mm" height="50mm" viewBox="0 0 50 50" xmlns="http://www.w3.org/2000/svg" version="1.1" preserveAspectRatio="xMidYMid meet"><g id="svgGroup" stroke-linecap="round" fill-rule="evenodd" font-size="9pt" stroke="#000" stroke-width="0.25mm" fill="none" style="stroke:#000;stroke-width:0.25mm;fill:none"><path d="M 3 3 L 3 14.125 L 0 14.125 L 0 35.875 L 3 35.875 L 3 47 L 14.125 47 L 14.125 50 L 35.875 50 L 35.875 47 L 47 47 L 47 35.875 L 50 35.875 L 50 14.125 L 47 14.125 L 47 3 L 35.875 3 L 35.875 0 L 14.125 0 L 14.125 3 L 3 3 Z" id="bottom_outsideCutPath" stroke="#FF0000" stroke-width="0.1" style="stroke:#FF0000;stroke-width:0.1" vector-effect="non-scaling-stroke"/><path d="M 41.45 28.75 L 40.64 28.75 L 40.64 25.268 Q 40.64 24.868 40.532 24.593 A 0.98 0.98 0 0 0 40.366 24.309 A 0.853 0.853 0 0 0 39.97 24.053 Q 39.773 23.989 39.517 23.989 A 2.086 2.086 0 0 0 39.092 24.029 Q 38.65 24.122 38.398 24.424 Q 38.039 24.856 38.037 25.753 A 4.551 4.551 0 0 0 38.037 25.762 L 38.037 28.75 L 37.227 28.75 L 37.227 25.268 Q 37.227 24.868 37.119 24.593 A 0.98 0.98 0 0 0 36.953 24.309 A 0.85 0.85 0 0 0 36.562 24.055 Q 36.421 24.009 36.249 23.995 A 1.898 1.898 0 0 0 36.099 23.989 A 2.013 2.013 0 0 0 35.682 24.029 Q 35.232 24.125 34.983 24.446 Q 34.662 24.859 34.632 25.752 A 5.643 5.643 0 0 0 34.629 25.942 L 34.629 28.75 L 33.818 28.75 L 33.818 23.398 L 34.478 23.398 L 34.609 24.131 L 34.648 24.131 A 1.593 1.593 0 0 1 35.295 23.52 A 1.924 1.924 0 0 1 36.055 23.307 A 2.324 2.324 0 0 1 36.23 23.301 A 2.654 2.654 0 0 1 36.828 23.363 Q 37.586 23.538 37.871 24.209 L 37.91 24.209 A 1.692 1.692 0 0 1 38.548 23.576 A 2.033 2.033 0 0 1 38.603 23.545 A 2.051 2.051 0 0 1 39.356 23.316 A 2.558 2.558 0 0 1 39.639 23.301 Q 40.251 23.301 40.656 23.513 A 1.336 1.336 0 0 1 40.999 23.767 Q 41.327 24.106 41.417 24.742 A 3.718 3.718 0 0 1 41.45 25.259 L 41.45 28.75 Z M 9.36 28.061 L 9.302 28.061 L 9.131 28.75 L 8.55 28.75 L 8.55 21.152 L 9.36 21.152 L 9.36 22.998 Q 9.36 23.598 9.324 24.079 A 10.075 10.075 0 0 1 9.321 24.111 L 9.36 24.111 A 1.843 1.843 0 0 1 10.705 23.33 A 2.768 2.768 0 0 1 11.04 23.31 A 2.477 2.477 0 0 1 11.737 23.403 A 1.854 1.854 0 0 1 12.678 24.031 Q 13.145 24.607 13.239 25.568 A 5.203 5.203 0 0 1 13.262 26.069 A 4.752 4.752 0 0 1 13.199 26.869 Q 13.126 27.295 12.969 27.637 A 2.278 2.278 0 0 1 12.673 28.118 A 1.919 1.919 0 0 1 11.31 28.835 A 2.749 2.749 0 0 1 11.04 28.848 Q 10.518 28.848 10.085 28.655 A 1.795 1.795 0 0 1 9.36 28.061 Z M 23.179 28.081 L 23.179 28.701 A 0.797 0.797 0 0 1 23.084 28.739 Q 22.983 28.772 22.839 28.798 A 3.033 3.033 0 0 1 22.791 28.806 Q 22.534 28.848 22.329 28.848 A 2.117 2.117 0 0 1 21.705 28.764 Q 20.776 28.477 20.776 27.212 L 20.776 24.028 L 20.01 24.028 L 20.01 23.638 L 20.776 23.301 L 21.118 22.158 L 21.587 22.158 L 21.587 23.398 L 23.14 23.398 L 23.14 24.028 L 21.587 24.028 L 21.587 27.178 A 1.632 1.632 0 0 0 21.61 27.464 Q 21.639 27.622 21.7 27.746 A 0.786 0.786 0 0 0 21.816 27.92 Q 22.046 28.179 22.446 28.179 A 2.662 2.662 0 0 0 22.836 28.151 A 2.453 2.453 0 0 0 22.861 28.147 Q 23.061 28.115 23.179 28.081 Z M 26.709 28.081 L 26.709 28.701 A 0.797 0.797 0 0 1 26.614 28.739 Q 26.514 28.772 26.369 28.798 A 3.033 3.033 0 0 1 26.321 28.806 Q 26.064 28.848 25.859 28.848 A 2.117 2.117 0 0 1 25.235 28.764 Q 24.307 28.477 24.307 27.212 L 24.307 24.028 L 23.54 24.028 L 23.54 23.638 L 24.307 23.301 L 24.648 22.158 L 25.117 22.158 L 25.117 23.398 L 26.67 23.398 L 26.67 24.028 L 25.117 24.028 L 25.117 27.178 A 1.632 1.632 0 0 0 25.141 27.464 Q 25.169 27.622 25.23 27.746 A 0.786 0.786 0 0 0 25.347 27.92 Q 25.576 28.179 25.977 28.179 A 2.662 2.662 0 0 0 26.366 28.151 A 2.453 2.453 0 0 0 26.392 28.147 Q 26.592 28.115 26.709 28.081 Z M 19.222 26.884 A 4.187 4.187 0 0 0 19.297 26.069 Q 19.297 25.549 19.187 25.117 A 2.524 2.524 0 0 0 18.635 24.048 A 2.122 2.122 0 0 0 17.65 23.412 A 2.724 2.724 0 0 0 16.851 23.301 A 3.148 3.148 0 0 0 16.285 23.349 A 2.144 2.144 0 0 0 15.034 24.031 A 2.239 2.239 0 0 0 14.759 24.412 Q 14.38 25.073 14.38 26.069 A 4.055 4.055 0 0 0 14.431 26.726 A 2.998 2.998 0 0 0 14.683 27.544 A 2.664 2.664 0 0 0 14.742 27.659 A 2.194 2.194 0 0 0 15.542 28.511 Q 16.099 28.848 16.816 28.848 A 3.147 3.147 0 0 0 17.366 28.802 A 2.161 2.161 0 0 0 18.638 28.113 A 2.261 2.261 0 0 0 18.907 27.743 Q 19.127 27.367 19.222 26.884 Z M 32.323 26.884 A 4.187 4.187 0 0 0 32.397 26.069 Q 32.397 25.549 32.287 25.117 A 2.524 2.524 0 0 0 31.736 24.048 A 2.122 2.122 0 0 0 30.751 23.412 A 2.724 2.724 0 0 0 29.951 23.301 A 3.148 3.148 0 0 0 29.386 23.349 A 2.144 2.144 0 0 0 28.135 24.031 A 2.239 2.239 0 0 0 27.86 24.412 Q 27.48 25.073 27.48 26.069 A 4.055 4.055 0 0 0 27.531 26.726 A 2.998 2.998 0 0 0 27.783 27.544 A 2.664 2.664 0 0 0 27.842 27.659 A 2.194 2.194 0 0 0 28.643 28.511 Q 29.199 28.848 29.917 28.848 A 3.147 3.147 0 0 0 30.467 28.802 A 2.161 2.161 0 0 0 31.738 28.113 A 2.261 2.261 0 0 0 32.007 27.743 Q 32.227 27.367 32.323 26.884 Z M 15.22 26.069 Q 15.22 27.095 15.63 27.632 A 1.328 1.328 0 0 0 16.495 28.141 A 2.013 2.013 0 0 0 16.836 28.169 A 1.883 1.883 0 0 0 17.333 28.107 A 1.31 1.31 0 0 0 18.044 27.634 A 1.74 1.74 0 0 0 18.315 27.106 Q 18.395 26.863 18.43 26.565 A 4.27 4.27 0 0 0 18.457 26.069 A 4.044 4.044 0 0 0 18.419 25.493 Q 18.376 25.2 18.287 24.962 A 1.669 1.669 0 0 0 18.044 24.519 A 1.333 1.333 0 0 0 17.215 24.024 A 2.044 2.044 0 0 0 16.826 23.989 A 1.929 1.929 0 0 0 16.346 24.045 A 1.291 1.291 0 0 0 15.625 24.512 Q 15.22 25.034 15.22 26.069 Z M 28.32 26.069 Q 28.32 27.095 28.73 27.632 A 1.328 1.328 0 0 0 29.596 28.141 A 2.013 2.013 0 0 0 29.936 28.169 A 1.883 1.883 0 0 0 30.433 28.107 A 1.31 1.31 0 0 0 31.145 27.634 A 1.74 1.74 0 0 0 31.416 27.106 Q 31.496 26.863 31.53 26.565 A 4.27 4.27 0 0 0 31.558 26.069 A 4.044 4.044 0 0 0 31.519 25.493 Q 31.477 25.2 31.388 24.962 A 1.669 1.669 0 0 0 31.145 24.519 A 1.333 1.333 0 0 0 30.316 24.024 A 2.044 2.044 0 0 0 29.927 23.989 A 1.929 1.929 0 0 0 29.446 24.045 A 1.291 1.291 0 0 0 28.726 24.512 Q 28.32 25.034 28.32 26.069 Z M 10.04 24.19 A 1.078 1.078 0 0 0 9.727 24.465 Q 9.36 24.941 9.36 26.069 A 5.359 5.359 0 0 0 9.387 26.623 Q 9.445 27.182 9.632 27.522 A 1.222 1.222 0 0 0 9.736 27.683 A 1.176 1.176 0 0 0 10.333 28.086 Q 10.532 28.148 10.775 28.164 A 2.606 2.606 0 0 0 10.942 28.169 A 1.616 1.616 0 0 0 11.401 28.107 A 1.166 1.166 0 0 0 12.056 27.624 Q 12.422 27.08 12.422 26.059 A 4.789 4.789 0 0 0 12.393 25.514 Q 12.319 24.87 12.056 24.502 Q 11.689 23.989 10.923 23.989 Q 10.383 23.989 10.04 24.19 Z" id="bottom_labelLayer" stroke="#777777" fill="#777777" style="stroke:#777777;fill:#777777" vector-effect="non-scaling-stroke"/></g></svg>