<svg width="50mm" height="1000mm" viewBox="0 0 50 1000" xmlns="http://www.w3.org/2000/svg" version="1.1" preserveAspectRatio="xMidYMid meet"><g id="svgGroup" stroke-linecap="round" fill-rule="evenodd" font-size="9pt" stroke="#000" stroke-width="0.25mm" fill="none" style="stroke:#000;stroke-width:0.25mm;fill:none"><path d="M 0 0 L 0 54.125 L 3 54.125 L 3 75.875 L 0 75.875 L 0 97.625 L 3 97.625 L 3 119.375 L 0 119.375 L 0 141.125 L 3 141.125 L 3 162.875 L 0 162.875 L 0 184.625 L 3 184.625 L 3 206.375 L 0 206.375 L 0 228.125 L 3 228.125 L 3 249.875 L 0 249.875 L 0 271.625 L 3 271.625 L 3 293.375 L 0 293.375 L 0 315.125 L 3 315.125 L 3 336.875 L 0 336.875 L 0 358.625 L 3 358.625 L 3 380.375 L 0 380.375 L 0 402.125 L 3 402.125 L 3 423.875 L 0 423.875 L 0 445.625 L 3 445.625 L 3 467.375 L 0 467.375 L 0 489.125 L 3 489.125 L 3 510.875 L 0 510.875 L 0 532.625 L 3 532.625 L 3 554.375 L 0 554.375 L 0 576.125 L 3 576.125 L 3 597.875 L 0 597.875 L 0 619.625 L 3 619.625 L 3 641.375 L 0 641.375 L 0 663.125 L 3 663.125 L 3 684.875 L 0 684.875 L 0 706.625 L 3 706.625 L 3 728.375 L 0 728.375 L 0 750.125 L 3 750.125 L 3 771.875 L 0 771.875 L 0 793.625 L 3 793.625 L 3 815.375 L 0 815.375 L 0 837.125 L 3 837.125 L 3 858.875 L 0 858.875 L 0 880.625 L 3 880.625 L 3 902.375 L 0 902.375 L 0 924.125 L 3 924.125 L 3 945.875 L 0 945.875 L 0 967.625 L 0 1000 L 14.125 1000 L 14.125 997 L 35.875 997 L 35.875 1000 L 50 1000 L 50 945.875 L 47 945.875 L 47 924.125 L 50 924.125 L 50 902.375 L 47 902.375 L 47 880.625 L 50 880.625 L 50 858.875 L 47 858.875 L 47 837.125 L 50 837.125 L 50 815.375 L 47 815.375 L 47 793.625 L 50 793.625 L 50 771.875 L 47 771.875 L 47 750.125 L 50 750.125 L 50 728.375 L 47 728.375 L 47 706.625 L 50 706.625 L 50 684.875 L 47 684.875 L 47 663.125 L 50 663.125 L 50 641.375 L 47 641.375 L 47 619.625 L 50 619.625 L 50 597.875 L 47 597.875 L 47 576.125 L 50 576.125 L 50 554.375 L 47 554.375 L 47 532.625 L 50 532.625 L 50 510.875 L 47 510.875 L 47 489.125 L 50 489.125 L 50 467.375 L 47 467.375 L 47 445.625 L 50 445.625 L 50 423.875 L 47 423.875 L 47 402.125 L 50 402.125 L 50 380.375 L 47 380.375 L 47 358.625 L 50 358.625 L 50 336.875 L 47 336.875 L 47 315.125 L 50 315.125 L 50 293.375 L 47 293.375 L 47 271.625 L 50 271.625 L 50 249.875 L 47 249.875 L 47 228.125 L 50 228.125 L 50 206.375 L 47 206.375 L 47 184.625 L 50 184.625 L 50 162.875 L 47 162.875 L 47 141.125 L 50 141.125 L 50 119.375 L 47 119.375 L 47 97.625 L 50 97.625 L 50 75.875 L 47 75.875 L 47 54.125 L 50 54.125 L 50 32.375 L 50 0 L 35.875 0 L 35.875 3 L 14.125 3 L 14.125 0 L 0 0 Z" id="back_outsideCutPath" stroke="#FF0000" stroke-width="0.1" style="stroke:#FF0000;stroke-width:0.1" vector-effect="non-scaling-stroke"/><path d="M 31.846 501.011 L 31.885 501.011 A 4.798 4.798 0 0 1 32.003 500.85 Q 32.14 500.673 32.335 500.446 A 17.416 17.416 0 0 1 32.524 500.229 L 34.253 498.398 L 35.215 498.398 L 33.047 500.679 L 35.366 503.75 L 34.385 503.75 L 32.495 501.221 L 31.885 501.748 L 31.885 503.75 L 31.084 503.75 L 31.084 496.152 L 31.885 496.152 L 31.885 500.181 A 5.402 5.402 0 0 1 31.882 500.333 Q 31.875 500.583 31.847 500.99 A 33.76 33.76 0 0 1 31.846 501.011 Z M 15.444 503.061 L 15.386 503.061 L 15.215 503.75 L 14.634 503.75 L 14.634 496.152 L 15.444 496.152 L 15.444 497.998 Q 15.444 498.598 15.408 499.079 A 10.075 10.075 0 0 1 15.405 499.111 L 15.444 499.111 A 1.843 1.843 0 0 1 16.789 498.33 A 2.768 2.768 0 0 1 17.124 498.31 A 2.477 2.477 0 0 1 17.821 498.404 A 1.854 1.854 0 0 1 18.762 499.031 Q 19.229 499.607 19.323 500.568 A 5.203 5.203 0 0 1 19.346 501.069 A 4.752 4.752 0 0 1 19.283 501.869 Q 19.21 502.295 19.053 502.637 A 2.278 2.278 0 0 1 18.757 503.118 A 1.919 1.919 0 0 1 17.394 503.835 A 2.749 2.749 0 0 1 17.124 503.848 Q 16.602 503.848 16.169 503.655 A 1.795 1.795 0 0 1 15.444 503.061 Z M 24.653 503.75 L 24.053 503.75 L 23.892 502.988 L 23.853 502.988 A 3.36 3.36 0 0 1 23.581 503.293 Q 23.317 503.552 23.054 503.669 A 1.869 1.869 0 0 1 22.668 503.791 Q 22.396 503.848 22.061 503.848 A 2.487 2.487 0 0 1 21.554 503.799 Q 21.245 503.735 21.007 503.585 A 1.396 1.396 0 0 1 20.813 503.437 A 1.332 1.332 0 0 1 20.411 502.735 A 2.039 2.039 0 0 1 20.361 502.27 A 1.403 1.403 0 0 1 21.159 500.947 Q 21.8 500.606 22.954 500.571 L 23.862 500.542 L 23.862 500.21 A 2.328 2.328 0 0 0 23.84 499.873 Q 23.814 499.701 23.761 499.563 A 0.905 0.905 0 0 0 23.591 499.28 Q 23.375 499.04 22.952 498.992 A 2.003 2.003 0 0 0 22.725 498.979 A 2.639 2.639 0 0 0 22.117 499.055 Q 21.839 499.121 21.535 499.245 A 5.428 5.428 0 0 0 21.211 499.39 L 20.962 498.769 A 3.737 3.737 0 0 1 21.683 498.473 A 4.254 4.254 0 0 1 21.829 498.433 A 3.754 3.754 0 0 1 22.773 498.31 A 3.423 3.423 0 0 1 23.295 498.347 Q 23.867 498.436 24.192 498.735 A 1.284 1.284 0 0 1 24.523 499.246 Q 24.6 499.456 24.632 499.717 A 3.189 3.189 0 0 1 24.653 500.098 L 24.653 503.75 Z M 29.893 498.579 L 29.644 499.268 A 3.606 3.606 0 0 0 29.252 499.137 A 4.306 4.306 0 0 0 29.058 499.089 Q 28.786 499.029 28.568 499.02 A 1.797 1.797 0 0 0 28.496 499.018 A 1.798 1.798 0 0 0 27.766 499.156 Q 26.865 499.553 26.865 501.099 A 3.925 3.925 0 0 0 26.904 501.67 Q 26.947 501.96 27.037 502.195 A 1.681 1.681 0 0 0 27.263 502.612 A 1.287 1.287 0 0 0 28.097 503.111 A 1.961 1.961 0 0 0 28.442 503.14 A 3.393 3.393 0 0 0 29.378 503.003 A 4.189 4.189 0 0 0 29.814 502.852 L 29.814 503.569 A 2.306 2.306 0 0 1 29.25 503.769 Q 28.99 503.827 28.687 503.842 A 4.445 4.445 0 0 1 28.462 503.848 A 3.029 3.029 0 0 1 27.725 503.763 A 2.054 2.054 0 0 1 26.663 503.132 A 2.345 2.345 0 0 1 26.175 502.237 Q 26.067 501.881 26.037 501.454 A 4.901 4.901 0 0 1 26.025 501.108 A 4.472 4.472 0 0 1 26.095 500.295 Q 26.179 499.841 26.365 499.484 A 2.235 2.235 0 0 1 26.672 499.033 A 2.099 2.099 0 0 1 27.822 498.372 A 3.182 3.182 0 0 1 28.516 498.301 Q 28.901 498.301 29.287 498.384 A 4.046 4.046 0 0 1 29.512 498.438 Q 29.742 498.502 29.893 498.579 Z M 16.124 499.19 A 1.078 1.078 0 0 0 15.811 499.465 Q 15.444 499.941 15.444 501.069 A 5.359 5.359 0 0 0 15.471 501.623 Q 15.529 502.182 15.716 502.522 A 1.222 1.222 0 0 0 15.82 502.683 A 1.176 1.176 0 0 0 16.417 503.086 Q 16.616 503.148 16.859 503.164 A 2.606 2.606 0 0 0 17.026 503.169 A 1.616 1.616 0 0 0 17.485 503.107 A 1.166 1.166 0 0 0 18.14 502.624 Q 18.506 502.08 18.506 501.06 A 4.789 4.789 0 0 0 18.477 500.514 Q 18.403 499.87 18.14 499.502 Q 17.773 498.989 17.007 498.989 Q 16.467 498.989 16.124 499.19 Z M 23.843 501.602 L 23.843 501.118 L 23.032 501.152 Q 22.065 501.186 21.638 501.453 A 0.865 0.865 0 0 0 21.226 502.08 A 1.28 1.28 0 0 0 21.211 502.28 A 1.158 1.158 0 0 0 21.24 502.546 Q 21.288 502.75 21.417 502.891 A 0.722 0.722 0 0 0 21.477 502.949 A 0.882 0.882 0 0 0 21.808 503.125 Q 21.938 503.163 22.095 503.174 A 1.823 1.823 0 0 0 22.222 503.179 A 2.232 2.232 0 0 0 22.704 503.13 Q 23.039 503.055 23.287 502.869 A 1.353 1.353 0 0 0 23.411 502.764 Q 23.843 502.349 23.843 501.602 Z" id="back_labelLayer" stroke="#777777" fill="#777777" style="stroke:#777777;fill:#777777" vector-effect="non-scaling-stroke"/></g></svg>