<?xml version="1.0" encoding="UTF-8" standalone="no"?>
<svg xmlns="http://www.w3.org/2000/svg" xmlns:xlink="http://www.w3.org/1999/xlink" width="90.958mm" height="93.675mm" viewBox="103.922363 -149.847656 90.958496 93.674805">
    <path transform="matrix(1,0,0,-1,0,0)" style="stroke:#ff0000;stroke-width:0.050000mm;fill:none" d="M171.379395,125L160.254395,125L160.254395,128L160.249023,128L160.249023,149.847656L138.51123,149.847656L138.51123,128L138.504395,128L138.504395,125L127.379387,125L127.379387,113.875L124.379387,113.875L124.379387,113.874023L103.922363,113.874023L103.922363,92.125977L124.379387,92.125977L124.379387,92.125L127.379387,92.125L127.379387,81L138.504395,81L138.504395,78L138.559082,78L138.559082,56.172852L160.297363,56.172852L160.297363,78.021973L160.254395,78.021973L160.254395,81L171.379395,81L171.379395,92.125L174.379395,92.125L174.379395,92.126465L194.880859,92.126465L194.880859,113.875L171.379395,113.875L171.379395,125z"/>
    <path transform="matrix(1,0,0,-1,0,0)" style="stroke:#ff0000;stroke-width:0.050000mm;fill:none" d="M135.164063,99.164063L134.919922,99.200195C134.445831,99.284622,134.022812,99.549385,133.739746,99.938965L133.681641,99.938965L133.510742,99.25L132.929688,99.25L132.929688,106.848137L133.739746,106.848137C133.749756,106.04277,133.746674,105.236923,133.730469,104.431641C133.727676,104.250504,133.717758,104.069527,133.700684,103.88916L133.739746,103.88916L133.864258,104.048828C134.260086,104.485123,134.831131,104.720596,135.419434,104.689941C136.404343,104.730362,137.278702,104.060211,137.495605,103.098633C137.742416,102.194519,137.690857,101.235283,137.348633,100.362793C136.975128,99.515831,136.079117,99.024338,135.164063,99.164063z"/>
    <path transform="matrix(1,0,0,-1,0,0)" style="stroke:#ff0000;stroke-width:0.050000mm;fill:none" d="M146.550781,99.155273L146.393555,99.170898C145.806534,99.205688,145.318802,99.638184,145.213867,100.216797C145.17276,100.404388,145.153183,100.596062,145.155762,100.788094L145.155762,103.972168L144.389648,103.972168L144.389648,104.361816L145.155762,104.699219L145.497559,105.841797L145.966797,105.841797L145.966797,104.602051L147.519531,104.602051L147.519531,103.972168L145.966797,103.972168L145.966797,100.821777C145.932922,100.495407,146.066437,100.17347,146.321289,99.966797C146.595078,99.819008,146.913116,99.777199,147.21582,99.849121C147.331329,99.86573,147.445801,99.889,147.558594,99.918945L147.558594,99.298828C147.236435,99.18074,146.893097,99.131859,146.550781,99.155273z"/>
    <path transform="matrix(1,0,0,-1,0,0)" style="stroke:#ff0000;stroke-width:0.050000mm;fill:none" d="M150.080566,99.155273L149.92334,99.170898C149.336624,99.205986,148.849274,99.63842,148.744629,100.216797C148.704361,100.404518,148.684784,100.5961,148.686523,100.788094L148.686523,103.972168L147.919434,103.972168L147.919434,104.361816L148.686523,104.699219L149.027344,105.841797L149.496582,105.841797L149.496582,104.602051L151.049805,104.602051L151.049805,103.972168L149.496582,103.972168L149.496582,100.821777C149.463135,100.495247,149.596786,100.173126,149.852051,99.966797C150.125534,99.819084,150.443237,99.777122,150.745605,99.849121C150.86113,99.865692,150.975586,99.888954,151.088379,99.918945L151.088379,99.298828C150.766174,99.180908,150.422882,99.132065,150.080566,99.155273z"/>
    <path transform="matrix(1,0,0,-1,0,0)" style="stroke:#ff0000;stroke-width:0.050000mm;fill:none" d="M158.197754,99.25L158.197754,104.602051L158.857422,104.602051L158.98877,103.869141L159.027344,103.869141L159.155273,104.055183C159.593964,104.551598,160.255981,104.78965,160.910156,104.685059C161.36763,104.672043,161.795776,104.455513,162.078613,104.095703C162.147369,104.001038,162.205307,103.898941,162.250488,103.791023L162.289551,103.791023L162.416016,103.980469C162.809006,104.456734,163.40152,104.722527,164.018555,104.699219C164.44278,104.724403,164.863968,104.610168,165.217285,104.374023C165.554092,104.096024,165.763046,103.69326,165.796387,103.257813C165.819626,103.086609,165.830826,102.913979,165.82959,102.741211L165.82959,99.25L165.019531,99.25L165.019531,102.731934C165.043015,103.073776,164.946091,103.41304,164.745605,103.690918C164.526627,103.921989,164.213516,104.0401,163.896484,104.01123C163.476837,104.043007,163.065308,103.883072,162.777344,103.576172C162.545929,103.251427,162.421722,102.862633,162.422852,102.463867L162.416504,102.24707L162.416504,99.25L161.606445,99.25L161.606445,102.731934C161.629883,103.073776,161.533081,103.413094,161.33252,103.690918C161.108566,103.917671,160.796387,104.034363,160.478516,104.01123C160.055069,104.045181,159.640396,103.875763,159.362793,103.554199C159.150528,103.229286,159.03302,102.851852,159.023438,102.463867C159.015762,102.360336,159.011047,102.256622,159.009277,102.152832L159.008789,99.25L158.197754,99.25z"/>
    <path transform="matrix(1,0,0,-1,0,0)" style="stroke:#ff0000;stroke-width:0.050000mm;fill:none" d="M140.847168,99.172852L140.518555,99.236328C139.66037,99.477943,139.013824,100.186333,138.851563,101.062988C138.670441,101.84935,138.73967,102.672501,139.049805,103.41748C139.394424,104.162323,140.126343,104.652687,140.946289,104.687988C141.714279,104.793938,142.486191,104.519402,143.014648,103.952148C143.474701,103.381844,143.710205,102.663116,143.676758,101.931152C143.700226,101.348106,143.565353,100.769478,143.286621,100.256844C142.907196,99.607231,142.223297,99.195107,141.47168,99.163086C141.263702,99.145439,141.054474,99.148628,140.847168,99.172852z"/>
    <path transform="matrix(1,0,0,-1,0,0)" style="stroke:#ff0000;stroke-width:0.050000mm;fill:none" d="M153.947754,99.172852L153.619141,99.236328C152.760803,99.477837,152.114105,100.186249,151.95166,101.062988C151.770233,101.849373,151.839767,102.672623,152.150391,103.41748C152.495407,104.16201,153.227066,104.652321,154.046875,104.687988C154.815002,104.793877,155.587021,104.519363,156.115723,103.952148C156.575211,103.381607,156.810257,102.662933,156.776367,101.931152C156.801041,101.348053,156.666275,100.76915,156.386719,100.256844C156.007309,99.607689,155.323944,99.195686,154.572754,99.163086C154.364609,99.145523,154.155243,99.148804,153.947754,99.172852z"/>
    <path transform="matrix(1,0,0,-1,0,0)" style="stroke:#ff0000;stroke-width:0.050000mm;fill:none" d="M141.466309,99.845215L141.712402,99.893066C142.19162,100.033333,142.563507,100.412308,142.694824,100.894043C142.896317,101.596153,142.886581,102.341583,142.666504,103.038094C142.457657,103.656609,141.856827,104.056572,141.205566,104.01123C140.744125,104.041588,140.296341,103.84642,140.004395,103.487793C139.744476,103.10173,139.605789,102.647041,139.605957,102.181641C139.557678,101.666138,139.634506,101.146393,139.830078,100.666992C140.071518,100.126099,140.624756,99.792336,141.21582,99.831055L141.466309,99.845215z"/>
    <path transform="matrix(1,0,0,-1,0,0)" style="stroke:#ff0000;stroke-width:0.050000mm;fill:none" d="M154.565918,99.845215L154.8125,99.893066C155.292145,100.032761,155.664276,100.411987,155.79541,100.894043C155.99704,101.596077,155.987381,102.34153,155.767578,103.038094C155.558578,103.656487,154.957855,104.056427,154.306641,104.01123C153.845169,104.041763,153.397263,103.846619,153.105469,103.487793C152.845123,103.101868,152.7061,102.647163,152.706055,102.181641C152.657608,101.666138,152.734482,101.146362,152.930176,100.666992C153.170914,100.125763,153.72438,99.79171,154.31543,99.831055L154.565918,99.845215z"/>
    <path transform="matrix(1,0,0,-1,0,0)" style="stroke:#ff0000;stroke-width:0.050000mm;fill:none" d="M135.553223,99.845703L135.780762,99.893066C136.217834,100.04174,136.548492,100.402763,136.658691,100.851067C136.855331,101.575089,136.852753,102.338333,136.651367,103.061043C136.487045,103.659157,135.921249,104.057999,135.302734,104.01123C134.923813,104.038193,134.548035,103.922928,134.249512,103.687988C133.984177,103.417717,133.821793,103.063042,133.791016,102.685547C133.682144,102.009277,133.728378,101.317383,133.92627,100.661621C134.081024,100.228973,134.46637,99.919868,134.922363,99.863281C135.130722,99.827324,135.34317,99.821587,135.553223,99.845703z"/>
</svg>
