<svg width="50mm" height="1000mm" viewBox="0 0 50 1000" xmlns="http://www.w3.org/2000/svg" version="1.1" preserveAspectRatio="xMidYMid meet"><g id="svgGroup" stroke-linecap="round" fill-rule="evenodd" font-size="9pt" stroke="#000" stroke-width="0.25mm" fill="none" style="stroke:#000;stroke-width:0.25mm;fill:none"><path d="M 3 0 L 3 54.125 L 0 54.125 L 0 75.875 L 3 75.875 L 3 97.625 L 0 97.625 L 0 119.375 L 3 119.375 L 3 141.125 L 0 141.125 L 0 162.875 L 3 162.875 L 3 184.625 L 0 184.625 L 0 206.375 L 3 206.375 L 3 228.125 L 0 228.125 L 0 249.875 L 3 249.875 L 3 271.625 L 0 271.625 L 0 293.375 L 3 293.375 L 3 315.125 L 0 315.125 L 0 336.875 L 3 336.875 L 3 358.625 L 0 358.625 L 0 380.375 L 3 380.375 L 3 402.125 L 0 402.125 L 0 423.875 L 3 423.875 L 3 445.625 L 0 445.625 L 0 467.375 L 3 467.375 L 3 489.125 L 0 489.125 L 0 510.875 L 3 510.875 L 3 532.625 L 0 532.625 L 0 554.375 L 3 554.375 L 3 576.125 L 0 576.125 L 0 597.875 L 3 597.875 L 3 619.625 L 0 619.625 L 0 641.375 L 3 641.375 L 3 663.125 L 0 663.125 L 0 684.875 L 3 684.875 L 3 706.625 L 0 706.625 L 0 728.375 L 3 728.375 L 3 750.125 L 0 750.125 L 0 771.875 L 3 771.875 L 3 793.625 L 0 793.625 L 0 815.375 L 3 815.375 L 3 837.125 L 0 837.125 L 0 858.875 L 3 858.875 L 3 880.625 L 0 880.625 L 0 902.375 L 3 902.375 L 3 924.125 L 0 924.125 L 0 945.875 L 3 945.875 L 3 967.625 L 3 1000 L 14.125 1000 L 14.125 997 L 35.875 997 L 35.875 1000 L 47 1000 L 47 945.875 L 50 945.875 L 50 924.125 L 47 924.125 L 47 902.375 L 50 902.375 L 50 880.625 L 47 880.625 L 47 858.875 L 50 858.875 L 50 837.125 L 47 837.125 L 47 815.375 L 50 815.375 L 50 793.625 L 47 793.625 L 47 771.875 L 50 771.875 L 50 750.125 L 47 750.125 L 47 728.375 L 50 728.375 L 50 706.625 L 47 706.625 L 47 684.875 L 50 684.875 L 50 663.125 L 47 663.125 L 47 641.375 L 50 641.375 L 50 619.625 L 47 619.625 L 47 597.875 L 50 597.875 L 50 576.125 L 47 576.125 L 47 554.375 L 50 554.375 L 50 532.625 L 47 532.625 L 47 510.875 L 50 510.875 L 50 489.125 L 47 489.125 L 47 467.375 L 50 467.375 L 50 445.625 L 47 445.625 L 47 423.875 L 50 423.875 L 50 402.125 L 47 402.125 L 47 380.375 L 50 380.375 L 50 358.625 L 47 358.625 L 47 336.875 L 50 336.875 L 50 315.125 L 47 315.125 L 47 293.375 L 50 293.375 L 50 271.625 L 47 271.625 L 47 249.875 L 50 249.875 L 50 228.125 L 47 228.125 L 47 206.375 L 50 206.375 L 50 184.625 L 47 184.625 L 47 162.875 L 50 162.875 L 50 141.125 L 47 141.125 L 47 119.375 L 50 119.375 L 50 97.625 L 47 97.625 L 47 75.875 L 50 75.875 L 50 54.125 L 47 54.125 L 47 32.375 L 47 0 L 35.875 0 L 35.875 3 L 14.125 3 L 14.125 0 L 3 0 Z" id="left_outsideCutPath" stroke="#FF0000" stroke-width="0.1" style="stroke:#FF0000;stroke-width:0.1" vector-effect="non-scaling-stroke"/><path d="M 28.557 498.425 L 28.557 499.055 L 27.195 499.055 L 27.195 503.777 L 26.384 503.777 L 26.384 499.055 L 25.427 499.055 L 25.427 498.689 L 26.384 498.396 L 26.384 498.098 A 3.285 3.285 0 0 1 26.461 497.354 Q 26.748 496.125 28.108 496.125 A 2.61 2.61 0 0 1 28.477 496.154 Q 28.657 496.179 28.857 496.229 A 5.247 5.247 0 0 1 29.104 496.296 L 28.894 496.946 Q 28.561 496.838 28.297 496.807 A 1.743 1.743 0 0 0 28.093 496.794 A 1.093 1.093 0 0 0 27.83 496.824 A 0.702 0.702 0 0 0 27.415 497.1 Q 27.195 497.405 27.195 498.079 L 27.195 498.425 L 28.557 498.425 Z M 24.763 500.735 L 24.763 501.247 L 21.077 501.247 Q 21.093 501.891 21.309 502.323 A 1.522 1.522 0 0 0 21.553 502.678 A 1.473 1.473 0 0 0 22.326 503.114 A 2.232 2.232 0 0 0 22.825 503.166 A 4.281 4.281 0 0 0 24.428 502.849 A 4.905 4.905 0 0 0 24.534 502.805 L 24.534 503.528 A 4.866 4.866 0 0 1 24.09 503.695 A 3.721 3.721 0 0 1 23.721 503.794 Q 23.337 503.874 22.795 503.874 A 3.15 3.15 0 0 1 22.007 503.781 A 2.23 2.23 0 0 1 20.923 503.152 Q 20.276 502.471 20.239 501.291 A 4.63 4.63 0 0 1 20.237 501.145 A 4.256 4.256 0 0 1 20.316 500.301 Q 20.419 499.788 20.66 499.389 A 2.4 2.4 0 0 1 20.874 499.089 A 2.077 2.077 0 0 1 22.388 498.334 A 2.865 2.865 0 0 1 22.585 498.328 A 2.469 2.469 0 0 1 23.281 498.421 A 1.879 1.879 0 0 1 24.177 498.989 A 2.266 2.266 0 0 1 24.691 500.025 A 3.299 3.299 0 0 1 24.763 500.735 Z M 31.995 503.108 L 31.995 503.728 A 0.797 0.797 0 0 1 31.9 503.765 Q 31.799 503.799 31.655 503.825 A 3.033 3.033 0 0 1 31.606 503.833 Q 31.35 503.874 31.145 503.874 A 2.117 2.117 0 0 1 30.521 503.79 Q 29.592 503.504 29.592 502.239 L 29.592 499.055 L 28.826 499.055 L 28.826 498.664 L 29.592 498.328 L 29.934 497.185 L 30.403 497.185 L 30.403 498.425 L 31.956 498.425 L 31.956 499.055 L 30.403 499.055 L 30.403 502.204 A 1.632 1.632 0 0 0 30.426 502.491 Q 30.454 502.648 30.516 502.773 A 0.786 0.786 0 0 0 30.632 502.947 Q 30.862 503.205 31.262 503.205 A 2.662 2.662 0 0 0 31.652 503.178 A 2.453 2.453 0 0 0 31.677 503.174 Q 31.877 503.142 31.995 503.108 Z M 18.816 496.179 L 18.816 503.777 L 18.005 503.777 L 18.005 496.179 L 18.816 496.179 Z M 21.096 500.588 L 23.894 500.588 Q 23.894 500.07 23.738 499.715 A 1.254 1.254 0 0 0 23.552 499.414 A 1.11 1.11 0 0 0 22.884 499.033 A 1.666 1.666 0 0 0 22.576 499.006 Q 21.931 499.006 21.548 499.426 A 1.601 1.601 0 0 0 21.229 499.963 Q 21.128 500.24 21.096 500.588 Z" id="left_labelLayer" stroke="#777777" fill="#777777" style="stroke:#777777;fill:#777777" vector-effect="non-scaling-stroke"/></g></svg>